<?xml version="1.0" standalone="no"?><!DOCTYPE svg PUBLIC "-//W3C//DTD SVG 1.1//EN" "http://www.w3.org/Graphics/SVG/1.1/DTD/svg11.dtd"><svg t="1680607954288" class="icon" viewBox="0 0 1024 1024" version="1.1" xmlns="http://www.w3.org/2000/svg" p-id="3587" xmlns:xlink="http://www.w3.org/1999/xlink" width="200" height="200"><path d="M887.99230742 432.38461573a218.7 218.7 0 0 0-18.7961537-179.63653888 221.19230742 221.19230742 0 0 0-238.24038429-106.13076943 218.7 218.7 0 0 0-164.95961571-73.54038427 221.20961572 221.20961572 0 0 0-211.01538429 153.15576943 218.76923057 218.76923057 0 0 0-146.25 106.0961537 221.22692315 221.22692315 0 0 0 27.20769171 259.37307687 218.7 218.7 0 0 0 18.79615459 179.63653798 221.20961572 221.20961572 0 0 0 238.24038427 106.13076944 218.7 218.7 0 0 0 164.95961573 73.54038516 221.20961572 221.20961572 0 0 0 211.08461484-153.24230831 218.76923057 218.76923057 0 0 0 146.25-106.09615371A221.22692315 221.22692315 0 0 0 887.99230742 432.38461573zM558.00384628 893.61730742a164.05961572 164.05961572 0 0 1-105.31730741-38.07692314c1.33269258-0.72692315 3.66923057-2.00769258 5.19230742-2.94230743l174.80769258-100.97307685a28.41923057 28.41923057 0 0 0 14.36538428-24.87115372V480.30961573l73.88653799 42.66346112a2.63076943 2.63076943 0 0 1 1.43653886 2.025v204.09230743a164.73461572 164.73461572 0 0 1-164.37115371 164.52692314z m-353.49230741-150.975a163.97307685 163.97307685 0 0 1-19.62692314-110.25c1.29807685 0.77884629 3.56538427 2.16346114 5.19230742 3.09807686l174.80769258 100.97307685a28.45384628 28.45384628 0 0 0 28.71346112 0l213.42115372-123.23076855v85.32692315a2.64807685 2.64807685 0 0 1-1.05576943 2.26730742l-176.71153799 102.02884628a164.7 164.7 0 0 1-224.74038428-60.21346201z m-45.98653887-381.61730742a163.92115371 163.92115371 0 0 1 85.63846114-72.13846114c0 1.50576943-0.08653886 4.17115372-0.08653799 6.02307687v201.9461537a28.40192315 28.40192315 0 0 0 14.34807685 24.8538463L471.84615371 644.92307685l-73.88653799 42.66346201a2.64807685 2.64807685 0 0 1-2.4923083 0.225l-176.72884629-102.11538515a164.7 164.7 0 0 1-60.21346113-224.67115371z m607.05 141.26538428l-213.42115372-123.23076855 73.886538-42.6461546a2.64807685 2.64807685 0 0 1 2.4923083-0.225l176.72884629 102.02884629a164.56153887 164.56153887 0 0 1-25.425 296.91346201V527.14423057a28.38461572 28.38461572 0 0 0-14.26153887-24.85384629zM839.11538427 391.60769258c-1.29807685-0.79615372-3.56538427-2.16346114-5.19230742-3.09807686l-174.80769258-100.97307685a28.48846114 28.48846114 0 0 0-28.71346112-1e-8l-213.42115372 123.23076856v-85.32692315a2.64807685 2.64807685 0 0 1 1.05576943-2.26730742l176.71153799-101.94230742A164.54423057 164.54423057 0 0 1 839.11538427 391.60769258z m-462.30576855 152.08269169l-73.90384629-42.66346112a2.63076943 2.63076943 0 0 1-1.43653886-2.025V294.90961572a164.54423057 164.54423057 0 0 1 269.82692315-126.34615459c-1.33269258 0.72692315-3.65192315 2.00769258-5.19230743 2.9423083l-174.80769257 100.97307685a28.40192315 28.40192315 0 0 0-14.36538429 24.8538463z m40.136538-86.53846112L512 402.25192315l95.05384629 54.86538427v109.76538516L512 621.74807685l-95.05384629-54.86538427z" fill="#1296db" p-id="3588"></path></svg>